<svg width="90" height="58" viewBox="0 0 90 58" fill="none" xmlns="http://www.w3.org/2000/svg">
<path d="M36.9581 30.2415L39.0037 30.4947L38.2238 31.4023L39.4017 31.3561L39.1846 31.8934L39.7065 31.805L38.7667 33.5332L40.0488 32.8336L39.1878 34.5034L40.8673 33.3939L40.795 34.0148L41.6113 33.597L41.8585 34.5877L42.3491 34.0943C42.3467 34.2269 42.3501 34.3571 42.3592 34.4848C42.3931 35.0083 42.4809 35.5266 42.6213 36.0321C42.8118 35.5644 43.0484 35.1151 43.3278 34.6905C43.4166 34.5537 43.5108 34.4206 43.6064 34.2961L43.8044 34.8307L44.42 34.2756L44.998 35.8144L45.7977 33.9205L46.6322 34.9334L46.7541 34.3853C46.8956 34.5867 47.0507 34.7859 47.2111 34.9887C47.7107 35.6032 48.2622 36.1763 48.8599 36.7023C48.5428 36.0166 48.2836 35.3066 48.0848 34.5792C48.064 34.4565 48.0213 34.342 47.996 34.22L49.0521 34.9429L48.7241 33.4474L50.8781 34.3676L49.6283 32.6946L53.5258 34.2889L50.8292 31.8465L52.1225 32.1505L51.0816 31.159L53.5922 31.4281L51.2573 30.1012L52.4174 29.9498L51.4294 29.4363L54.471 28.8716L52.3575 28.3278L53.8369 27.8563L51.8154 27.36L52.8332 26.8089L51.805 26.5818L55.1497 24.8024L51.8476 25.2625L52.6802 24.4722L51.3068 24.6327L52.5139 23.4904L50.5766 23.8771L51.3608 22.333L50.1326 22.9919C50.1328 22.98 50.1308 22.9681 50.1266 22.9569C50.3856 22.4102 50.5894 21.8412 50.7352 21.2577C50.3215 21.675 49.8683 22.0537 49.3815 22.3887L49.2936 22.4487L50.2138 20.4668L48.4339 21.7556C48.5349 21.2607 48.6062 20.7609 48.6473 20.2587C48.2858 20.806 47.8824 21.3265 47.4404 21.8157L47.2947 21.9756L47.6187 19.9189L46.3528 21.4859L46.1617 20.6886L45.576 21.365L45.2355 19.5199L44.5308 21.2579L44.0469 20.5508L43.7645 21.4193L43.1674 20.6502L42.9937 21.3063C42.8784 21.2041 42.757 21.0939 42.6326 20.9933C42.2513 20.688 41.84 20.4194 41.4044 20.1913C41.5639 20.5782 41.6893 20.9777 41.7794 21.3857L40.8845 20.843L41.2653 22.0995L40.2664 21.7141L40.497 22.4416L38.3336 21.3832L39.6779 23.2837L38.7767 23.283L39.235 23.9764L38.4705 24.0382L38.9027 24.8262L37.4185 25.1317L38.5109 25.8484L36.77 26.2921L38.2099 26.8823L35.1931 27.9794L38.502 28.2216C38.5011 28.2291 38.5024 28.2367 38.5058 28.2435L37.122 29.0595L38.3989 29.2941L36.9581 30.2415ZM39.5545 27.6826C39.5596 27.5194 39.5571 27.3395 39.5706 27.1434C39.5937 26.9331 39.6284 26.724 39.6746 26.5171C39.7861 26.0062 39.9838 25.5157 40.2597 25.0653C40.5811 24.5271 41.0043 24.0515 41.5069 23.6638C42.0744 23.2201 42.7303 22.8955 43.4324 22.7109C44.1798 22.5098 44.962 22.4697 45.7234 22.5934C46.5191 22.7151 47.2735 23.0115 47.9288 23.46C48.5841 23.9086 49.123 24.4974 49.5043 25.1814C49.7007 25.5142 49.852 25.8704 49.9546 26.2414C50.0198 26.4332 50.014 26.592 50.0755 26.7619C50.1159 26.9428 50.1469 27.1257 50.1683 27.3098C50.2162 28.0067 50.1139 28.7073 49.8678 29.3671C49.652 29.9516 49.3258 30.4932 48.9057 30.9639C48.5555 31.3634 48.1401 31.7049 47.6764 31.9747C47.4892 32.0855 47.2958 32.1859 47.0971 32.2757C46.9094 32.3525 46.7323 32.4096 46.5741 32.4679C46.3285 32.5431 46.0769 32.5977 45.8221 32.6314L45.5544 32.6767L45.8124 32.6015C46.0547 32.5282 46.2925 32.4413 46.5246 32.3411L46.9964 32.0943C47.1745 31.9874 47.3465 31.8709 47.5115 31.7456C47.9087 31.4533 48.2574 31.1037 48.5452 30.7093C48.882 30.2589 49.1396 29.7581 49.3073 29.2276C49.4796 28.6315 49.5329 28.0103 49.4642 27.3975C49.447 27.2412 49.4207 27.0861 49.3855 26.9329C49.3506 26.7667 49.3057 26.6027 49.2509 26.4417C49.2017 26.2979 49.1436 26.1572 49.0769 26.0203C49.0098 25.8695 48.9336 25.7228 48.8484 25.5811C48.7587 25.4319 48.661 25.2874 48.5557 25.1482C48.5365 25.4376 48.4422 25.7184 48.2815 25.9648C48.1209 26.2111 47.899 26.4149 47.6365 26.5573C47.7352 26.6545 47.8082 26.7733 47.8497 26.9038C47.8911 27.0344 47.8997 27.1729 47.8748 27.3081C47.8498 27.4432 47.7921 27.571 47.7063 27.681C47.6205 27.7909 47.5091 27.8798 47.3814 27.9403C47.2537 28.0009 47.1132 28.0312 46.9717 28.029C46.8302 28.0268 46.6916 27.9919 46.5675 27.9274C46.4433 27.8629 46.3372 27.7706 46.2578 27.658C46.1784 27.5454 46.1281 27.4159 46.111 27.2801C46.0763 27.0722 46.1233 26.8584 46.2429 26.6806C45.8959 26.5767 45.5915 26.3715 45.3713 26.093C45.151 25.8144 45.0255 25.4761 45.0117 25.1238C44.9979 24.7715 45.0966 24.4225 45.2943 24.124C45.4921 23.8256 45.7792 23.5922 46.1168 23.4556C45.9443 23.4036 45.7688 23.361 45.5911 23.3282C44.9476 23.2149 44.2857 23.2277 43.6444 23.3657C43.0031 23.5038 42.3954 23.7643 41.857 24.132C41.3915 24.4582 40.9856 24.8578 40.6566 25.3137C40.3665 25.7049 40.1388 26.1357 39.9813 26.5914C39.9123 26.782 39.8563 26.9767 39.8139 27.1743C39.7755 27.3611 39.7531 27.5318 39.7277 27.6849C39.7035 27.9292 39.6952 28.1745 39.7027 28.4195L39.714 28.6791C39.714 28.6791 39.6991 28.5915 39.6702 28.4205C39.6082 28.1789 39.568 27.9322 39.55 27.6834L39.5545 27.6826Z" fill="white"/>
<path d="M5.32848 41.541L4.67298 41.5574L5.32369 41.623C5.49353 41.652 5.66513 41.6711 5.83758 41.6802C6.66826 41.7321 7.50227 41.7294 8.33388 41.6723C9.1741 41.5871 10.0089 41.4532 10.8337 41.2714C11.7654 41.0628 12.6847 40.8032 13.5871 40.494C13.9088 40.3809 14.2199 40.2606 14.5173 40.1426C14.5988 40.2099 14.7164 40.2982 14.8665 40.4126C14.4572 40.7524 13.9858 41.1389 13.5536 41.5367C12.8747 42.1885 12.2473 42.8886 11.6768 43.631C11.2145 44.2369 10.9448 44.6568 10.9448 44.6568C10.9448 44.6568 11.3096 44.3019 11.8969 43.8282C12.6046 43.2524 13.3578 42.7314 14.1493 42.2699C14.4069 42.1181 14.6674 41.9748 14.9309 41.84C14.8376 41.9234 14.7398 42.0076 14.6519 42.0946C13.8891 42.8557 13.2614 43.7331 12.7946 44.6907C12.701 44.8824 12.6234 45.0578 12.5624 45.2214C12.5014 45.3851 12.445 45.5209 12.4091 45.6397L12.2893 46.0071L12.4846 45.672C12.5409 45.5632 12.6275 45.4404 12.7202 45.2984C12.8248 45.1403 12.9375 44.9872 13.058 44.8399C13.6761 44.0487 14.4263 43.3622 15.2771 42.8094C15.721 42.5229 16.1871 42.2706 16.6712 42.0547C16.8196 41.9935 16.9634 41.9331 17.1087 41.8814L17.2076 41.9414C16.7565 42.28 16.3342 42.6531 15.9446 43.057C15.33 43.6987 14.803 44.4139 14.3769 45.1847C14.2051 45.4933 14.0825 45.7621 14.0018 45.9471L13.8792 46.2429L14.0735 45.9845C14.201 45.8277 14.3816 45.5987 14.6243 45.3502C15.7415 44.1722 17.146 43.2844 18.7064 42.7696L18.7834 42.8107L18.3189 43.1554C17.8116 43.5686 17.3334 44.0141 16.8874 44.489C16.085 45.3744 15.4227 46.3695 14.9225 47.4414C14.819 47.6573 14.7314 47.857 14.6643 48.0397C14.5972 48.2224 14.5295 48.3736 14.4935 48.5195L14.3622 48.9295L14.5683 48.5474C14.6321 48.4284 14.7248 48.2864 14.8281 48.1246C14.9314 47.9629 15.0461 47.7856 15.2077 47.6095C15.8751 46.6948 16.6822 45.8829 17.6011 45.2022C18.0822 44.8478 18.5876 44.5256 19.1138 44.2381C19.5498 44.0111 19.9987 43.8086 20.4584 43.6317L20.7264 43.7531C20.5807 43.913 20.4365 44.0817 20.3014 44.276C19.9591 44.7269 19.6719 45.2144 19.4456 45.7285C19.346 45.9557 19.2607 46.1885 19.1902 46.4255C19.347 46.2363 19.5162 46.057 19.6968 45.8888C20.0732 45.5343 20.4905 45.2231 20.9403 44.9613C21.3375 44.7336 21.7583 44.5475 22.1955 44.4061L22.2657 44.4347C22.1549 44.5798 22.0493 44.7284 21.9498 44.885C21.6633 45.3129 21.418 45.765 21.2168 46.2356C21.0576 46.6187 20.9805 46.8798 20.9805 46.8798C20.9805 46.8798 21.1648 46.6727 21.4681 46.3959C21.8314 46.0659 22.2248 45.7684 22.6434 45.507C22.9191 45.3364 23.2046 45.1812 23.4983 45.0421C23.1904 45.4355 22.911 45.8489 22.6621 46.2793C22.2072 47.0792 21.8807 47.9404 21.6941 48.833C21.6313 49.1203 21.587 49.4109 21.5613 49.7031L21.5331 50.0325L21.6429 49.7163C21.7359 49.446 21.8471 49.1817 21.9758 48.925C22.3561 48.1564 22.8547 47.4471 23.4542 46.8215C23.9608 46.2948 24.5332 45.8313 25.158 45.4418L25.8022 45.6348C25.7529 45.7018 25.6983 45.7651 25.6542 45.8357C25.1831 46.53 24.853 47.3038 24.6817 48.1151C24.6492 48.2676 24.627 48.422 24.6152 48.5772C24.6005 48.7104 24.5865 48.821 24.5839 48.9161L24.5732 49.211L24.6663 48.9338C24.7 48.8264 24.7415 48.7215 24.7905 48.6197C24.8419 48.4846 24.904 48.3535 24.9762 48.2275C25.3293 47.5572 25.8107 46.9568 26.3946 46.4588C26.5944 46.2913 26.8053 46.1366 27.0258 45.9957C27.4314 46.1028 27.8507 46.2077 28.2783 46.3066C28.1115 46.6618 27.9707 47.0277 27.8568 47.4015C27.6189 48.2001 27.515 49.0292 27.549 49.8568C27.5578 50.1229 27.5855 50.3878 27.632 50.6498L27.6817 50.9435C27.6817 50.9435 27.6957 50.8329 27.7152 50.6447C27.7434 50.3881 27.7892 50.1333 27.8521 49.8821C28.1437 48.6532 28.7729 47.5199 29.6729 46.6024L30.1164 46.6851C30.0357 46.8701 29.961 47.0631 29.8999 47.2538C29.6555 47.9946 29.5341 48.7671 29.5405 49.542C29.538 49.7898 29.5549 50.0371 29.5911 50.2819C29.6208 50.4573 29.6379 50.5581 29.6379 50.5581L29.6841 50.2797C29.7209 50.0414 29.7763 49.806 29.8496 49.5754C30.0532 48.8904 30.3687 48.2403 30.784 47.6497C30.9707 47.385 31.178 47.1343 31.404 46.8999C31.9216 46.9791 32.4475 47.0523 32.9856 47.1145C32.9531 47.3364 32.9237 47.5758 32.9094 47.7947C32.8602 48.5003 32.9017 49.2082 33.0328 49.9019C33.0873 50.2094 33.1621 50.513 33.2568 50.8109C33.2646 50.5048 33.2908 50.1993 33.3352 49.8958C33.4304 49.2477 33.6065 48.6122 33.8597 48.0035C33.9602 47.7504 34.074 47.5024 34.2007 47.2604C34.7744 47.312 35.3556 47.3533 35.9482 47.3792C35.8861 47.6689 35.8391 47.9613 35.8071 48.2553C35.7353 48.9604 35.7552 49.6705 35.8663 50.3689C35.9132 50.6772 35.9805 50.9821 36.0676 51.2817C36.0799 50.9738 36.1137 50.6668 36.1687 50.3628C36.3434 49.3172 36.7415 48.3161 37.3376 47.4235L38.2213 47.4316C38.2418 47.6323 38.2756 47.8314 38.3223 48.0277C38.3579 48.2028 38.4043 48.3756 38.4613 48.5452C38.5655 48.1546 38.7214 47.7781 38.9252 47.4251C39.5534 47.4134 40.1847 47.3921 40.8327 47.359C40.8292 47.7785 40.855 48.1975 40.9097 48.613C41.0125 49.3424 41.207 50.0559 41.489 50.7377C41.5793 50.9584 41.6813 51.1744 41.7946 51.3848L41.9232 51.62C41.8574 51.3064 41.8114 50.9889 41.7855 50.6694C41.7337 49.9824 41.7735 49.2907 41.9038 48.6114C41.9883 48.1501 42.1129 47.6962 42.2762 47.2543C42.6997 47.2187 43.1269 47.1779 43.5625 47.1312L44.4057 50.2077L44.821 46.9812C45.3474 46.892 45.8874 46.8276 46.4229 46.7369C46.6681 47.0648 46.8942 47.4059 47.1001 47.7584C47.571 48.5546 47.9574 49.3955 48.2535 50.2684C48.2535 50.2684 48.2644 49.9193 48.2412 49.3687C48.2119 48.7139 48.1359 48.0624 48.0137 47.4188C47.9595 47.0989 47.8826 46.7828 47.8041 46.4849L48.5348 46.3612C48.6758 46.4771 48.8176 46.5974 48.9585 46.7403C49.3507 47.0868 49.6913 47.4842 49.9709 47.9215C50.0534 48.0689 50.1133 48.2273 50.1486 48.3919C50.165 48.4566 50.1762 48.5226 50.182 48.5891C50.2082 48.5253 50.2299 48.4599 50.2468 48.3933C50.2857 48.2088 50.2962 48.0202 50.2781 47.8334C50.1881 47.2737 50.022 46.7287 49.7842 46.2127L49.7428 46.134L50.6423 45.9321C51.0019 46.2019 51.3417 46.4953 51.6594 46.8104C52.162 47.3443 52.6051 47.9281 52.9815 48.5523C53.1556 48.8434 53.3139 49.1432 53.4557 49.4504C53.4185 49.1098 53.3613 48.7718 53.2843 48.4379C53.1007 47.6898 52.8338 46.964 52.4881 46.2733C52.3604 46.0154 52.216 45.7693 52.0724 45.5276L53.0741 45.2678C53.8064 45.8018 54.3672 46.5252 54.693 47.3562C54.7701 47.5481 54.8317 47.7457 54.8771 47.9472C54.9024 48.0963 54.9165 48.1795 54.9165 48.1795L54.946 47.9401C54.9741 47.7274 54.9847 47.513 54.9774 47.299C54.9554 46.6227 54.8063 45.9574 54.5375 45.3355C54.476 45.1927 54.4061 45.0557 54.3362 44.9187L55.2578 44.6544C55.319 44.6847 55.3847 44.7141 55.4571 44.756C55.887 44.978 56.2861 45.2512 56.6452 45.5692C57.023 45.9006 57.3551 46.2777 57.6336 46.6913C57.7676 46.8841 57.8889 47.0849 57.9969 47.2926C57.9864 47.0535 57.9602 46.8155 57.9182 46.58C57.8266 46.0452 57.6678 45.524 57.4453 45.0279C57.3069 44.7179 57.1454 44.4183 56.9619 44.1314L57.7058 43.8927C57.9626 44.0913 58.2 44.3121 58.4152 44.5526C58.7716 44.9491 59.0696 45.3917 59.3009 45.8679C59.4093 46.0938 59.5017 46.3267 59.5776 46.565C59.5995 46.3105 59.6046 46.0551 59.5929 45.8004C59.5684 45.2168 59.4597 44.6403 59.2701 44.0876C59.1943 43.8742 59.1074 43.6647 59.0097 43.4599L60.2971 43.0119C60.6829 43.2604 61.0434 43.5435 61.374 43.8576C61.6521 44.1216 61.8209 44.3184 61.8209 44.3184C61.7694 44.1094 61.7065 43.9034 61.6323 43.7011C61.5087 43.3519 61.3576 43.0128 61.1803 42.6865L62.3262 42.258C62.8516 42.4368 63.3585 42.6619 63.8406 42.9303C63.6498 42.581 63.4368 42.2436 63.2027 41.9202C63.7326 41.7132 64.2571 41.5026 64.7718 41.2892C64.9419 41.3785 65.1033 41.4825 65.2539 41.5998C65.4067 41.7149 65.5499 41.8414 65.6822 41.9782C65.6371 41.7887 65.5776 41.6028 65.504 41.4222C65.4575 41.3129 65.3943 41.1883 65.3259 41.0601C72.3981 38.116 79.1723 34.5305 85.557 30.352L87.3904 29.1036L85.3054 28.3701C83.3179 27.6607 82.938 27.5402 76.7259 22.7263C75.1917 21.5344 73.5889 20.427 71.9251 19.4093C72.1794 19.1978 72.4083 18.9593 72.6077 18.6985C72.7166 18.5568 72.8146 18.4076 72.9009 18.2521C72.7467 18.3337 72.5874 18.4059 72.424 18.4681C72.0797 18.5953 71.7195 18.676 71.3535 18.7081C71.1435 18.7257 70.9325 18.7252 70.723 18.7066C70.4544 18.5537 70.2039 18.3978 69.914 18.2575C70.1373 18.0348 70.3353 17.7896 70.5045 17.5263C70.788 17.0844 70.9762 16.5922 71.0578 16.0799C71.0825 15.9196 71.0941 15.7578 71.0926 15.5961C71.0733 15.4821 71.0629 15.4208 71.0629 15.4208L70.9875 15.5823C70.9196 15.7214 70.8408 15.8553 70.7519 15.9829C70.4948 16.3486 70.1628 16.6597 69.7769 16.8965C69.4235 17.1141 69.0291 17.2606 68.6174 17.3274C68.4929 17.3502 68.3665 17.361 68.24 17.3597L68.1447 17.3758L67.7899 17.2105C68.0386 16.926 68.2538 16.6158 68.4316 16.2857C68.7232 15.7664 68.9061 15.1976 68.9698 14.612C68.9872 14.4284 68.9903 14.244 68.9791 14.0603L68.9449 13.8587L68.8793 14.0502C68.8206 14.2187 68.7467 14.3821 68.6586 14.5384C68.4188 14.9737 68.0932 15.3599 67.7003 15.6748C67.3074 15.9897 66.855 16.2272 66.369 16.3735C66.2732 16.3954 66.1762 16.4119 66.0786 16.4227L66.0287 16.4041C66.215 16.1378 66.3799 15.8581 66.522 15.5676C66.7798 15.0426 66.9512 14.4826 67.0299 13.908C67.0671 13.6575 67.0821 13.4045 67.0745 13.152C66.9752 13.3834 66.857 13.607 66.7209 13.8206C66.2051 14.68 65.4388 15.3747 64.5193 15.8166L63.7929 15.5519C64.1436 15.1525 64.4602 14.7264 64.7396 14.2779C65.1352 13.6387 65.4429 12.953 65.6546 12.2382C65.7372 11.9537 65.7893 11.7104 65.8216 11.5426C65.8539 11.3748 65.8701 11.2774 65.8701 11.2774L65.743 11.5199C65.6609 11.669 65.5424 11.8785 65.3783 12.1227C64.6062 13.264 63.5454 14.1968 62.2983 14.8311L62.0181 14.9687L61.4532 14.8029L61.5944 14.6167C61.9514 14.0996 62.2162 13.5288 62.3775 12.9285C62.4272 12.7366 62.4644 12.5421 62.489 12.346L62.5131 12.13L62.4059 12.324C62.319 12.4988 62.2179 12.6667 62.1034 12.8261C61.7731 13.2771 61.3661 13.6708 60.9 13.9903C60.6298 14.1688 60.3433 14.323 60.0443 14.4508C59.5866 14.339 59.1257 14.2367 58.6664 14.1432C58.7485 13.994 58.8337 13.8353 58.9098 13.6781C59.1678 13.1666 59.3904 12.6393 59.5762 12.0999C59.7174 11.6657 59.7893 11.3739 59.7893 11.3739C59.3013 12.0059 58.7516 12.5913 58.1479 13.1218C57.8451 13.3867 57.527 13.6347 57.1953 13.8648C56.7881 13.803 56.3808 13.7412 55.9712 13.6934C56.1174 13.2079 56.2271 12.7131 56.2994 12.213C56.389 11.5542 56.4093 10.8891 56.36 10.2279C56.3117 9.69499 56.2433 9.34588 56.2433 9.34588C56.2433 9.34588 56.19 9.69306 56.0562 10.1982C55.8896 10.8007 55.6585 11.3854 55.3666 11.9426C55.0843 12.4825 54.7452 12.9933 54.3548 13.4666L54.3161 13.5138L53.5792 13.4627C53.5937 13.1627 53.5962 12.8467 53.5798 12.5293C53.5574 11.9217 53.4862 11.3172 53.367 10.7212C53.2853 10.2391 53.1774 9.93275 53.1774 9.93275C53.1774 9.93275 53.1484 10.2578 53.0608 10.7325C52.9589 11.3026 52.8105 11.8645 52.6171 12.4128C52.4976 12.7429 52.3609 13.067 52.2073 13.384C51.7712 13.3722 51.3274 13.3707 50.8889 13.3728C50.0102 12.4662 49.3175 11.4058 48.8469 10.2469C48.6331 9.72849 48.5291 9.36285 48.5291 9.36285C48.5291 9.36285 48.5136 9.73971 48.5503 10.3151C48.5981 11.0252 48.7172 11.7284 48.9059 12.4146C49.0024 12.7635 49.1207 13.1042 49.246 13.4301L48.9957 13.441C47.9538 12.4559 47.1274 11.2777 46.5647 9.9751C46.4171 9.64041 46.289 9.29785 46.1808 8.94898C46.1908 9.31814 46.2205 9.68634 46.2696 10.0521C46.3803 10.8766 46.5846 11.6857 46.879 12.4648C47.0212 12.8442 47.1854 13.2153 47.3707 13.5764L47.1528 13.6133L46.7613 13.3414C45.295 12.2892 44.1043 10.9198 43.2826 9.34063C43.1098 9.0092 42.9867 8.72345 42.8982 8.50398L42.7691 8.18317C42.7691 8.18317 42.7899 8.30589 42.8263 8.52066C42.8627 8.73544 42.9161 9.05102 42.9792 9.42358C43.2011 10.3372 43.5296 11.2224 43.9583 12.0622C44.2864 12.6935 44.6681 13.297 45.0995 13.8664L44.9679 13.8887L44.8985 13.8373C44.0798 13.2247 43.335 12.5252 42.6779 11.7516C42.0079 10.9627 41.4317 10.103 40.96 9.18844C40.7608 8.81187 40.6167 8.48459 40.5214 8.25274L40.3713 7.8904L40.4374 8.2805C40.4789 8.52595 40.5391 8.88098 40.6701 9.29615C40.9505 10.3217 41.3469 11.3129 41.8523 12.2521C42.2228 12.9367 42.6461 13.593 43.1185 14.2154C42.9415 14.2454 42.7645 14.2754 42.5965 14.3309L42.2021 14.0144C41.8296 13.7014 41.4755 13.3685 41.1416 13.0172C40.76 12.6038 40.4042 12.1688 40.0759 11.7143C39.456 10.8418 38.9551 9.89472 38.5855 8.89622C38.5083 8.68837 38.4432 8.49651 38.3953 8.32426C38.3475 8.15201 38.2942 8.00321 38.2666 7.89517L38.1628 7.50246C38.1628 7.50246 38.1873 7.6471 38.1849 7.90901C38.1881 8.03773 38.1992 8.18614 38.2183 8.35423C38.2374 8.52233 38.2625 8.72549 38.2935 8.96371C38.4596 10.0664 38.7705 11.1426 39.2187 12.1661C39.4662 12.7213 39.7493 13.2606 40.0664 13.7809C40.3012 14.147 40.5322 14.4911 40.761 14.795C40.4639 14.8784 40.1673 14.9647 39.8712 15.0539C39.6092 14.9098 39.3585 14.7473 39.1213 14.5678C38.6725 14.2335 38.2027 13.8576 37.7458 13.4481C36.9055 12.7314 36.1154 11.9615 35.3807 11.1433C34.7712 10.4665 34.4038 9.97868 34.4038 9.97868C34.4038 9.97868 34.669 10.5244 35.1292 11.3122C35.6989 12.2825 36.3326 13.2158 37.0263 14.1065C37.4081 14.5964 37.8103 15.0693 38.1975 15.5087L38.2819 15.5936L37.5834 15.8517C37.1058 15.6382 36.6457 15.3906 36.2067 15.111C35.5038 14.664 34.8573 14.1396 34.2801 13.5481C34.0374 13.3006 33.8514 13.0841 33.7089 12.9324L33.5086 12.6868C33.5086 12.6868 33.5589 12.791 33.6362 12.9718C33.7136 13.1526 33.8473 13.4185 34.0202 13.7228C34.4446 14.479 34.9573 15.1848 35.5483 15.8267C35.7427 16.0372 35.95 16.2411 36.1603 16.4354L35.9037 16.5465C34.9846 15.968 34.0992 15.3413 33.2515 14.6691C32.3578 13.9568 31.5046 13.1982 30.6957 12.3967C30.0333 11.7379 29.6144 11.2768 29.6144 11.2768C29.6144 11.2768 29.9333 11.8089 30.4608 12.5808C31.1073 13.5304 31.8076 14.4443 32.5585 15.3185C33.1444 16.0219 33.7895 16.6881 34.3683 17.2664L33.8746 17.5214C33.4198 17.4 32.8927 17.2368 32.3936 17.0463C31.8944 16.8558 31.1787 16.5712 30.5695 16.2821C29.4431 15.743 28.3742 15.0996 27.3776 14.3609C26.962 14.0571 26.6355 13.7832 26.4071 13.5919L26.0512 13.2825C26.0512 13.2825 26.1619 13.4125 26.3464 13.6473C26.5309 13.8821 26.8142 14.2038 27.1713 14.5762C28.0465 15.5015 29.0127 16.3419 30.0567 17.0859C30.63 17.4938 31.2306 17.87 31.8101 18.2047L32.232 18.4353L31.7828 18.7053C31.4972 18.6725 31.1911 18.6296 30.8791 18.5788C30.2343 18.4596 29.5997 18.2959 28.9801 18.0888C27.7994 17.6907 26.6915 17.1179 25.6953 16.3907C25.5076 16.2579 25.3276 16.1153 25.1561 15.9635C24.9932 15.8288 24.8522 15.7129 24.7459 15.6092L24.406 15.2835L24.6845 15.6602C24.7711 15.7853 24.8878 15.9233 25.0272 16.0846C25.1743 16.2677 25.3317 16.4427 25.4988 16.6089C26.3932 17.5381 27.4322 18.3264 28.579 18.9458C29.1122 19.2353 29.6652 19.4896 30.2345 19.7069L29.7201 20.0601L29.1131 19.7841C28.6375 19.5671 28.0941 19.2804 27.5304 18.9566C26.9667 18.6327 26.3835 18.249 25.8133 17.8316C24.7692 17.0661 23.8066 16.2022 22.9395 15.2523C22.5748 14.8632 22.2969 14.518 22.1064 14.2752L21.8007 13.8761C21.8007 13.8761 21.8879 14.0327 22.0292 14.2883C22.1706 14.5439 22.3938 14.9525 22.6842 15.3993C23.396 16.5126 24.2227 17.5523 25.152 18.5027C25.6606 19.0252 26.2019 19.5197 26.7304 19.9667C27.259 20.4138 27.7764 20.7951 28.2358 21.1095L28.0539 21.2485L27.8855 21.1914C27.2021 20.96 26.4282 20.6356 25.6046 20.2656C24.781 19.8956 23.9341 19.4439 23.1041 18.9532C21.5728 18.0454 20.1424 16.9885 18.835 15.7987C18.5651 15.5558 18.3209 15.3267 18.1174 15.1176C17.914 14.9086 17.7255 14.7331 17.5589 14.5765L17.1023 14.0857L17.4923 14.6239C17.6157 14.8013 17.7753 15.0268 17.9553 15.2353C18.1353 15.4438 18.3469 15.7281 18.5939 16.0289C19.7585 17.3969 21.0649 18.6456 22.493 19.7556C23.2819 20.3614 24.0913 20.9232 24.904 21.4213C25.5046 21.7705 26.0872 22.1227 26.6246 22.4014L26.3471 22.6378L26.1084 22.579C25.2951 22.3699 24.494 22.1204 23.7082 21.8312C22.8035 21.4916 21.9184 21.1057 21.0568 20.6752C19.4333 19.8504 17.9138 18.8493 16.5271 17.691C16.2391 17.4512 15.982 17.2287 15.7642 17.0176C15.5464 16.8065 15.345 16.6377 15.2057 16.4765L14.7271 15.9939L15.145 16.5318C15.2768 16.7034 15.4463 16.9046 15.6444 17.1371C15.8425 17.3696 16.0677 17.6245 16.3239 17.8967C17.5897 19.2448 19.0119 20.447 20.5629 21.4802C21.3979 22.0321 22.2631 22.5403 23.155 23.0025C23.8101 23.3425 24.4299 23.6117 25.0075 23.8521L24.8506 24.0004C24.4492 23.9737 24.0064 23.9224 23.528 23.8546C22.9482 23.7568 22.3747 23.6282 21.8101 23.4693C20.7348 23.1622 19.7027 22.7316 18.7357 22.1864C18.3342 21.9659 18.0136 21.7542 17.7918 21.6024L17.4433 21.3638L17.7372 21.6657C17.9963 21.934 18.2701 22.1886 18.5573 22.4286C19.4341 23.1755 20.4002 23.8185 21.4355 24.3443C21.6551 24.4559 21.8823 24.5572 22.1043 24.6549C21.623 24.5696 21.1365 24.4536 20.6478 24.3244C19.7175 24.0663 18.8052 23.7525 17.9163 23.3848C17.0341 23.0016 16.1798 22.5618 15.3591 22.0685C14.6331 21.6296 13.9381 21.1448 13.2786 20.6173L12.8624 20.282L12.5005 19.9646C12.2751 19.7638 12.0768 19.5854 11.9435 19.4322L11.4558 18.9512L12.0248 19.5266C12.1573 19.7026 12.3306 19.8986 12.5325 20.126L12.8557 20.4905C12.974 20.6103 13.0991 20.7424 13.234 20.8774C13.8345 21.4911 14.4776 22.0645 15.1587 22.5939C15.9497 23.2015 16.7816 23.7579 17.649 24.2597C18.5301 24.7525 19.4419 25.1928 20.3793 25.5783C21.1494 25.8799 21.9356 26.1425 22.7348 26.3651L22.558 26.5619L22.3667 26.5627C21.5318 26.5601 20.6983 26.5085 19.8709 26.4083C18.9157 26.2811 17.9712 26.0916 17.0438 25.8411C16.1121 25.5828 15.2011 25.261 14.3177 24.878C13.5403 24.5378 12.789 24.1453 12.0693 23.7033L11.6158 23.4239L11.219 23.1484C10.9708 22.9785 10.7497 22.8311 10.5861 22.692L10.0477 22.2692L10.5308 22.7509C10.6837 22.9099 10.8813 23.0839 11.1112 23.2839C11.222 23.3868 11.3426 23.4927 11.4738 23.6057C11.605 23.7188 11.7491 23.8251 11.8946 23.9402C12.5624 24.4697 13.2682 24.9528 14.0069 25.386C14.8695 25.8972 15.7695 26.3475 16.7001 26.7334C17.2022 26.9415 17.7376 27.1258 18.2602 27.2898C17.4985 27.1753 16.7075 27.0252 15.9226 26.829C14.9726 26.5907 14.039 26.2971 13.1267 25.9499C12.3255 25.6377 11.5457 25.2773 10.7918 24.871L10.3148 24.6181L9.89447 24.3692C9.62961 24.2111 9.37828 24.0778 9.21615 23.9475L8.63825 23.5674L9.18041 24.0122C9.34477 24.1557 9.55971 24.3222 9.80105 24.5067L10.1925 24.8056L10.6421 25.1173C11.3546 25.6179 12.0993 26.0745 12.8718 26.4845C13.7632 26.9565 14.6839 27.3757 15.6287 27.74C16.5849 28.0964 17.562 28.3991 18.5553 28.6466C19.1189 28.7766 19.6606 28.8877 20.1714 28.9816C19.6179 29.0212 19.0009 29.0445 18.3492 29.0557C17.4672 29.0509 16.5865 29.0029 15.7105 28.9119C14.0574 28.7315 12.4318 28.3763 10.8626 27.8528C10.5371 27.7501 10.2434 27.6421 9.9851 27.5506C9.72684 27.459 9.48747 27.3688 9.31461 27.2854L8.74082 27.0399L9.26221 27.3619C9.4335 27.4636 9.64935 27.5804 9.89466 27.7057C10.14 27.8309 10.4094 27.9882 10.7279 28.1326C12.2575 28.8697 13.8667 29.4437 15.5277 29.8447C16.1887 29.9987 16.8536 30.1206 17.5109 30.2257C16.6496 30.322 15.7315 30.4143 14.8174 30.4474C13.1848 30.5387 11.5513 30.3578 9.98833 29.9126C9.46805 29.757 8.96471 29.5539 8.48505 29.3061C8.30765 29.2234 8.18091 29.1366 8.08808 29.0847L7.94848 29.0047L8.07744 29.1046C8.15813 29.1675 8.27728 29.2646 8.44098 29.3766C8.88654 29.6899 9.36234 29.961 9.86198 30.1865C11.4092 30.855 13.0664 31.2606 14.7616 31.3857C15.9708 31.4965 17.1788 31.5173 18.2447 31.5262C17.8543 31.6464 17.4351 31.7625 16.9872 31.8744C15.3909 32.2417 13.7462 32.3543 12.1184 32.2076C11.3989 32.1422 10.6862 32.0248 9.98605 31.8563L9.54337 31.7509L9.14987 31.6327C8.90365 31.5572 8.68689 31.4902 8.51172 31.4207L7.96351 31.2159L8.47747 31.4941C8.6382 31.5886 8.8458 31.6842 9.0836 31.7927L9.45878 31.9682L9.88916 32.1387C10.579 32.4066 11.2885 32.6255 12.0122 32.7937C12.853 32.981 13.7077 33.1075 14.5693 33.1722C15.2192 33.2129 15.8715 33.2169 16.5227 33.184C15.9973 33.4173 15.447 33.6412 14.8734 33.8376C14.1893 34.0626 13.4935 34.2512 12.7889 34.4025C12.1661 34.5303 11.5372 34.6263 10.9048 34.6901C10.628 34.7369 10.371 34.7354 10.1441 34.7467C9.91729 34.7581 9.71463 34.7744 9.5506 34.7706L9.00476 34.7729L9.51635 34.844C9.67956 34.8705 9.87907 34.8908 10.1066 34.9109C10.3341 34.931 10.5819 34.9612 10.8782 34.9741C11.5281 35.0102 12.18 35.0126 12.8309 34.9815C13.582 34.9433 14.3307 34.8632 15.0732 34.7416C14.8128 34.8307 14.5525 34.9199 14.2861 35.0011C12.8726 35.4387 11.4229 35.7536 9.95442 35.9421C9.35537 36.0436 8.84122 36.0676 8.48509 36.0873L7.9263 36.1233L8.48483 36.1685C8.84005 36.1985 9.35403 36.2287 9.96711 36.2376C11.4841 36.2629 13.002 36.1568 14.5025 35.9203L14.793 35.8711L14.5916 35.9503C13.4907 36.3405 12.3499 36.6123 11.1902 36.7609C10.8044 36.8155 10.4162 36.8511 10.0271 36.8677L9.5644 36.8919L10.0042 36.9527C10.2861 36.9906 10.6904 37.0349 11.1802 37.0601C11.8523 37.0951 12.5264 37.0894 13.1987 37.0429C12.8724 37.1838 12.5402 37.3168 12.2033 37.4505C11.0455 37.8974 9.86398 38.2826 8.66397 38.6045C7.67205 38.8672 6.99956 39.0036 6.99956 39.0036C6.99956 39.0036 7.68228 38.9827 8.71297 38.8938C9.9778 38.7795 11.2358 38.5966 12.481 38.3458L12.6625 38.315L12.1554 38.5181C10.8422 39.0294 9.48728 39.4309 8.10561 39.718C7.53295 39.8376 7.05272 39.8964 6.71688 39.9532L6.19044 40.0424L6.72414 40.0512C7.06508 40.0521 7.55423 40.0459 8.11904 40.0178C9.56501 39.94 11.0028 39.7417 12.4164 39.4253C12.7205 39.3738 13.0179 39.2829 13.3122 39.2014L13.085 39.3211C12.2727 39.7192 11.4376 40.0714 10.584 40.3759C9.05436 40.9589 7.45389 41.3436 5.82447 41.5201C5.65952 41.5352 5.49397 41.5422 5.32848 41.541ZM56.3455 40.3537L56.9747 39.7962C58.1516 38.6919 59.1629 37.4338 59.9785 36.0592C60.3574 35.431 60.6948 34.7805 60.9886 34.1117C61.1453 33.7966 61.2371 33.4564 61.362 33.1467C61.487 32.8369 61.5961 32.5164 61.6674 32.1932C61.7387 31.87 61.8182 31.568 61.8865 31.2543C61.9675 30.9635 62.0298 30.6684 62.073 30.3706C62.1375 29.787 62.236 29.2383 62.2603 28.7202C62.2846 28.202 62.2861 27.7148 62.286 27.273C62.2858 26.8312 62.21 26.4111 62.1757 26.0427L62.1206 25.5245C62.0938 25.3667 62.0686 25.2177 62.0463 25.0862C61.9996 24.8101 61.9368 24.5773 61.8951 24.3859L61.7706 23.8164C61.7706 23.8164 61.773 24.0234 61.7733 24.4111C61.7742 24.6093 61.7794 24.8609 61.7831 25.1308C61.8061 25.2667 61.7905 25.4226 61.7847 25.5814C61.7789 25.7402 61.7565 25.9108 61.7446 26.0887C61.7125 26.4503 61.6901 26.8419 61.6449 27.2643C61.5998 27.6868 61.4955 28.1463 61.4101 28.6342C61.3246 29.1221 61.1522 29.6202 61.0137 30.1532C60.9106 30.5088 60.7711 30.8706 60.6286 31.2419C61.794 27.1568 61.2591 22.8106 59.1392 19.14C60.1211 19.4246 61.2252 19.7967 62.3223 20.2106C63.7191 20.7523 65.086 21.362 66.4179 22.0373C67.5192 22.5858 68.2323 22.9925 68.2323 22.9925C68.2323 22.9925 67.5867 22.4886 66.5812 21.7888C65.5756 21.0889 64.1874 20.1968 62.7392 19.3915C62.2652 19.1291 61.7837 18.877 61.3135 18.6365C62.1141 18.8706 62.8799 19.1197 63.6078 19.3932C65.0131 19.8901 66.2739 20.4431 67.3912 20.9482L68.9205 21.7082L70.2217 22.3896C70.9907 22.8229 71.6194 23.1448 72.0306 23.3953L72.6676 23.7383L72.1514 23.226C71.81 22.8916 71.3042 22.4136 70.6256 21.8252L69.481 20.8828C69.1235 20.5917 68.72 20.3038 68.2946 19.9971C70.7355 21.3063 73.0532 22.8175 75.222 24.514C79.4295 27.7737 81.0911 28.9847 82.4173 29.6754C80.9145 30.6152 78.5158 32.054 75.486 33.6808L75.9042 33.3935C76.9859 32.6963 77.8967 32.0371 78.6407 31.4963C79.3848 30.9555 79.9577 30.5067 80.3502 30.2058L80.9369 29.7277C80.9369 29.7277 79.9987 30.2248 78.3623 31.0655C77.9542 31.2744 77.5022 31.4997 76.9979 31.7474C76.4937 31.9952 75.9697 32.2643 75.3912 32.5426C74.8128 32.8209 74.2056 33.1221 73.5507 33.4179C72.8959 33.7137 72.231 34.0607 71.5096 34.3768C70.0802 35.0337 68.5238 35.7121 66.8758 36.4286C66.0462 36.7675 65.1976 37.1321 64.3226 37.4787C63.4476 37.8253 62.5726 38.1719 61.6424 38.5233L58.8496 39.5373L56.3455 40.3537ZM38.506 39.768L38.465 38.3682L37.4844 39.1114L38.177 36.4196L36.3795 38.2931C36.3639 38.201 36.4027 38.0998 36.4182 37.9979C36.4965 37.5422 36.6192 37.0942 36.7845 36.6599C36.3502 36.9146 35.9437 37.2116 35.5714 37.5462L35.5229 37.5905L35.5407 37.4477C35.5982 37.0385 35.6856 36.6335 35.8023 36.2356C35.4169 36.459 35.0489 36.7097 34.7015 36.9856L35.5985 34.8949L33.7556 36.3072L33.7792 36.2536C33.9694 35.8468 34.1881 35.4527 34.4338 35.0742C33.9956 35.212 33.5666 35.3766 33.1493 35.5667L33.2286 35.3459C33.359 35.01 33.5126 34.6827 33.6883 34.3663C33.3118 34.4315 32.9403 34.5231 32.5769 34.6402C32.4816 34.6563 32.3907 34.6988 32.2984 34.7324C32.4237 34.5624 32.5663 34.385 32.7143 34.2111C33.0723 33.7819 33.455 33.3723 33.8604 32.9845C33.2881 33.105 32.7231 33.2578 32.1686 33.4424C32.0354 33.4829 31.903 33.5279 31.7713 33.5773L31.7668 33.551C31.9203 33.2933 32.0432 33.0199 32.133 32.736C31.8532 32.7657 31.5713 32.765 31.2924 32.7341L31.1299 32.712L31.9588 31.6248L31.0953 31.6808L31.1992 31.5776C31.5482 31.2442 31.9178 30.9316 32.3058 30.6417C31.8008 30.6402 31.2958 30.6685 30.7936 30.7265L30.7301 30.7372L31.8347 29.955L30.2566 29.8435L32.4382 28.694L30.7253 28.3935L31.5471 27.8981L30.7657 27.557L33.1794 27.3646L31.3953 26.6162C31.747 26.5073 32.0892 26.3709 32.4187 26.2084C32.1056 26.0654 31.8055 25.8976 31.5214 25.7066L33.2098 25.3666L32.4493 24.8732L33.6604 24.8845L32.8203 24.1971L34.5785 24.2961L33.7538 23.534L35.3529 23.7141L34.0957 22.7412L35.6114 23.0075L34.9578 22.1804L36.4045 22.26L35.8643 21.4137L37.3743 22.0597L36.6359 20.787L37.655 20.9886L37.5067 20.3059C37.6004 20.3351 37.6986 20.3636 37.7983 20.4008C38.1279 20.521 38.4463 20.6676 38.7502 20.8392C38.7107 20.5166 38.6472 20.1973 38.5604 19.8839L39.7212 20.4809L39.3937 19.346L40.6386 19.8882L40.7267 19.0301L41.5967 19.8116L41.6958 18.7983L42.2618 19.6042L42.3224 18.3631L42.9853 19.3555L43.4909 18.4267L44.0037 19.5798L44.5181 18.2617L44.9874 19.2689L45.5602 17.9094L45.8745 18.6903L46.4754 17.7454L46.915 18.6042L47.3745 17.9268L47.759 18.7634L48.3937 17.8804L48.8755 20.0081L49.6681 18.1831L49.9331 19.5269L50.7628 18.1961L51.1525 19.2843L52.0067 18.3461L51.9749 19.5643L53.1961 18.5053L52.8832 19.6901L53.9832 19.1836C53.9178 19.321 53.8485 19.4634 53.7846 19.6095C53.4909 20.2655 53.2448 20.9399 53.048 21.628C53.5199 21.1041 54.0275 20.6114 54.5676 20.1532C54.792 19.9619 55.0231 19.783 55.239 19.6247L55.1403 20.0337L55.8395 19.8071L55.1847 21.0407L56.7154 20.1547L55.3208 21.7886L57.4839 20.9714L56.3296 22.1498L58.1004 21.8274L57.1705 22.8145L58.6154 22.7456C58.6236 22.7938 58.631 22.8376 58.6384 22.8815L56.0639 24.2193L58.7161 24.1398L57.2564 24.8379L59.1265 25.1569L58.9016 25.2626C58.3262 25.5314 57.7155 25.7566 57.7155 25.7566C57.7155 25.7566 58.2674 25.9833 58.8746 26.178L58.0055 26.5596L58.7064 27.0316L56.6992 27.2814L58.5787 27.9866L57.7268 28.194L58.5555 28.8697L57.7536 29.0416L58.2819 29.5698L56.6639 29.6364L58.4024 30.6946L57.1996 30.7045L57.9359 31.4409L56.8208 31.4449L57.572 32.242L55.9528 31.7227L56.5833 32.689L55.5634 32.483L56.5686 33.7872L55.4594 33.5782L56.0789 34.6726L55.0366 34.3622L55.6961 35.4995L54.1928 34.8929L54.748 35.7728L53.526 35.1456L54.3704 36.6032L53.5882 36.2848L53.765 36.8049L52.5099 35.8993L53.0191 37.2243L51.9402 36.5324L52.3405 37.8488L51.7037 37.4516L51.7303 38.6284L50.4398 37.1833L50.7798 39.1907C50.6397 39.0251 50.483 38.8442 50.3187 38.6736C49.9554 38.289 49.571 37.9237 49.167 37.5792C49.278 38.0756 49.3629 38.5773 49.4216 39.0826C49.4438 39.2141 49.4646 39.3368 49.4627 39.4634L48.0405 37.8195L48.2152 39.7603L47.5397 38.9143L47.3718 39.9077L46.3096 37.495L46.02 40.1682L45.2299 38.2595L44.6497 40.8151L43.772 38.3892L43.3191 40.594C43.2842 40.5244 43.2534 40.4528 43.2268 40.3797C43.0749 40.0123 42.9545 39.633 42.8667 39.2459C42.6492 39.576 42.4564 39.9206 42.2896 40.2769L41.782 37.9687L40.9079 40.4433C40.8555 40.2788 40.8146 40.111 40.7855 39.941C40.6987 39.484 40.6606 39.0191 40.6719 38.5535C40.3454 38.9379 40.0623 39.3547 39.8274 39.7967L39.746 39.9503C39.72 39.7968 39.6933 39.6391 39.7021 39.4707C39.6748 38.9668 39.6875 38.4612 39.7401 37.9583C39.3807 38.3589 39.055 38.7865 38.7662 39.237C38.6711 39.447 38.5806 39.6021 38.494 39.752L38.506 39.768ZM16.6435 38.8311C17.7418 36.8548 18.947 34.9349 20.2538 33.0796C20.1284 33.3038 20.0166 33.5256 19.8987 33.7394L19.2664 35.0774C19.0723 35.4755 18.9283 35.8381 18.7912 36.1589L18.4614 36.9677C18.2891 37.4117 18.1932 37.6444 18.1932 37.6444L18.6403 37.0591C18.9257 36.6771 19.3335 36.1076 19.8731 35.4075L20.7688 34.2458L21.8435 32.9006C22.2283 32.4161 22.6501 31.9298 23.0993 31.4119L23.7859 30.6148L24.4489 29.8983L24.3061 30.1299C22.7088 32.745 21.3932 35.4792 21.3932 35.4792C21.3932 35.4792 23.13 32.9713 25.1012 30.6625C26.1226 29.4435 27.2004 28.2825 28.0006 27.4662C28.0169 30.6208 29.0029 33.6885 30.833 36.2792C30.5822 35.9835 30.3374 35.6958 30.1289 35.402C29.8272 34.9436 29.5132 34.5233 29.2545 34.0982C28.9958 33.6731 28.802 33.2731 28.5817 32.8821C28.3614 32.491 28.2484 32.1269 28.0997 31.8004C28.0246 31.6328 27.9563 31.4775 27.894 31.3303C27.8317 31.183 27.7929 31.0363 27.7472 30.9043C27.6603 30.6394 27.5847 30.4133 27.521 30.2302C27.3928 29.8596 27.3269 29.6634 27.3269 29.6634C27.3269 29.6634 27.3611 29.865 27.3901 30.2569C27.4228 30.4497 27.4416 30.699 27.4741 30.9731C27.4978 31.1133 27.5238 31.2667 27.5483 31.4114C27.5728 31.556 27.6047 31.7445 27.6714 31.918C27.7595 32.2728 27.8513 32.6766 27.9664 33.108C28.0814 33.5394 28.2827 33.9562 28.4671 34.466C28.6515 34.9759 28.9298 35.4337 29.1875 35.9627C29.3221 36.2313 29.4766 36.4899 29.65 36.7365C29.8162 37.0014 29.9915 37.2648 30.166 37.5509C30.3405 37.8369 30.5757 38.0676 30.7683 38.3506C30.976 38.6246 31.1983 38.888 31.4342 39.1396C31.933 39.6749 32.4659 40.1795 33.0299 40.6504C34.2546 41.6772 35.6235 42.5319 37.0968 43.1899L38.2799 43.6703L38.3207 43.6634L38.1106 43.6629C36.2636 43.6736 34.4195 43.5611 32.5914 43.3262C31.7163 43.2309 30.8845 43.0336 30.0571 42.9168C29.2297 42.7999 28.4661 42.564 27.7166 42.4114C26.9672 42.2588 26.2475 42.0065 25.5942 41.7879L24.6057 41.4639L24.1132 41.3129L23.6677 41.1358C23.0833 40.9102 22.5336 40.6967 22.0338 40.4747L21.3106 40.1463L20.6652 39.8363C19.8009 39.4264 18.9637 38.9659 18.1581 38.4574C18.1581 38.4574 18.3344 38.6439 18.7114 38.9678C19.2441 39.4315 19.8024 39.8667 20.3842 40.2716L20.9824 40.6889L21.6569 41.1157C22.1201 41.425 22.6529 41.7044 23.2106 42.0203L23.6423 42.2538L24.1005 42.4783L25.0569 42.943L25.3853 43.0903C22.27 42.0872 19.3257 40.6527 16.6435 38.8311Z" fill="white"/>
<path d="M22.3273 39.176C22.9683 39.4326 23.728 39.7007 24.5497 39.9764C25.3713 40.252 26.2345 40.5522 27.1144 40.8135C27.9943 41.0748 28.8696 41.3639 29.7013 41.5883C30.5329 41.8126 31.3139 42.0411 31.99 42.2016C32.6661 42.3621 33.2212 42.5251 33.6194 42.6155L34.2403 42.7809L33.597 42.7591C33.1866 42.7339 32.6001 42.6889 31.898 42.5959C31.196 42.5029 30.3928 42.3639 29.53 42.2034C28.6672 42.0429 27.7623 41.7724 26.8643 41.5142C25.9662 41.256 25.1047 40.9104 24.2901 40.5659C23.4754 40.2215 22.7697 39.8585 22.1372 39.5418C21.5046 39.2251 21.0271 38.9138 20.6785 38.7023L20.1504 38.3408L20.7522 38.559C21.1259 38.7257 21.6726 38.9487 22.3273 39.176Z" fill="white"/>
<path d="M63.399 36.6838C64.2106 36.3209 65.1312 35.8854 66.1556 35.4008C67.1799 34.9162 68.2383 34.4394 69.3036 33.9208C70.3689 33.4022 71.4696 32.9272 72.4516 32.4408C73.4336 31.9543 74.3988 31.5339 75.1961 31.1419C75.9934 30.7498 76.6785 30.4399 77.1509 30.2246L77.8974 29.8908L77.2238 30.3521C76.8049 30.6349 76.1633 31.0367 75.4074 31.5073C74.6514 31.978 73.7321 32.4764 72.7597 33.0198C71.7874 33.5633 70.707 34.0754 69.6333 34.5999C68.5597 35.1244 67.4622 35.5628 66.4244 35.9955C65.3866 36.4283 64.4064 36.7882 63.5634 37.0752C62.7203 37.3623 62.0022 37.5876 61.505 37.7395L60.7128 37.9683L61.4495 37.6046C61.9219 37.3893 62.6146 37.0691 63.399 36.6838Z" fill="white"/>
<path d="M72.6975 31.3849L70.8461 32.3612L68.689 33.4074L66.4884 34.3617L64.5385 35.1429L63.1324 35.6335L62.5913 35.8018L63.0731 35.5038L64.3477 34.7604L66.1991 33.784L68.3562 32.7379L70.5568 31.7835L72.5067 31.0024L73.9076 30.5081L74.4486 30.3398L73.9722 30.6415L72.6975 31.3849Z" fill="white"/>
<path d="M29.7673 40.793L28.3561 40.4549L26.7754 39.9696L25.232 39.3744L23.926 38.7749L23.0264 38.2871L22.6929 38.082L23.0827 38.1513L24.083 38.3786L25.4743 38.7652L27.0437 39.2659L28.5833 39.8393L29.9099 40.3946L30.8293 40.8341L31.178 41.0185L30.7828 40.9727L29.7673 40.793Z" fill="white"/>
</svg>
